<?xml version="1.0" encoding="UTF-8"?>
<svg xmlns="http://www.w3.org/2000/svg" xmlns:xlink="http://www.w3.org/1999/xlink" width="26pt" height="26pt" viewBox="0 0 26 26" version="1.1">
<g id="surface1">
<path style=" stroke:none;fill-rule:nonzero;fill:#FFFFFF;fill-opacity:1;" d="M 7 0 C 6.398438 0 6 0.398438 6 1 L 6 4 C 6 4.601563 6.398438 5 7 5 C 7.601563 5 8 4.601563 8 4 L 8 1 C 8 0.398438 7.601563 0 7 0 Z M 19 0 C 18.398438 0 18 0.398438 18 1 L 18 4 C 18 4.601563 18.398438 5 19 5 C 19.601563 5 20 4.601563 20 4 L 20 1 C 20 0.398438 19.601563 0 19 0 Z M 3 2 C 1.300781 2 0 3.300781 0 5 L 0 23 C 0 24.699219 1.300781 26 3 26 L 23 26 C 24.699219 26 26 24.699219 26 23 L 26 5 C 26 3.300781 24.699219 2 23 2 L 21 2 L 21 4 C 21 5.101563 20.101563 6 19 6 C 17.898438 6 17 5.101563 17 4 L 17 2 L 9 2 L 9 4 C 9 5.101563 8.101563 6 7 6 C 5.898438 6 5 5.101563 5 4 L 5 2 Z M 2 9 L 24 9 L 24 23 C 24 23.601563 23.601563 24 23 24 L 3 24 C 2.398438 24 2 23.601563 2 23 Z M 14.3125 12.1875 C 13.011719 12.1875 11.894531 12.605469 11.09375 13.40625 C 10.195313 14.304688 9.59375 15.585938 9.59375 17.1875 C 9.59375 19.1875 10.699219 20.90625 13 20.90625 C 14.800781 20.90625 16.09375 19.511719 16.09375 17.8125 C 16.09375 16.011719 14.898438 15 13.5 15 C 12.699219 15 12.085938 15.289063 11.6875 15.6875 C 11.988281 14.6875 12.699219 13.789063 14.5 13.6875 L 15.09375 13.6875 L 15.09375 12.1875 Z M 13 16.5 C 13.898438 16.5 14.3125 17.199219 14.3125 18 C 14.3125 18.800781 13.792969 19.507813 13.09375 19.40625 C 12.195313 19.40625 11.6875 18.585938 11.6875 17.6875 C 11.6875 17.488281 11.710938 17.289063 11.8125 17.1875 C 12.011719 16.789063 12.5 16.5 13 16.5 Z "/>
</g>
</svg>
