<?xml version="1.0" encoding="UTF-8"?>
<svg xmlns="http://www.w3.org/2000/svg" xmlns:xlink="http://www.w3.org/1999/xlink" width="26pt" height="26pt" viewBox="0 0 26 26" version="1.1">
<g id="surface1">
<path style=" stroke:none;fill-rule:nonzero;fill:#FFFFFF;fill-opacity:1;" d="M 8.03125 0.0625 C 7.707031 0.0625 7.433594 0.0898438 7.15625 0.09375 L 7.15625 5.9375 C 7.152344 6.265625 6.847656 6.53125 6.5 6.53125 C 6.152344 6.53125 5.875 6.265625 5.875 5.9375 L 5.875 0.125 C 4.851563 0.191406 4.34375 0.3125 4.34375 0.3125 C 4.34375 0.3125 4.097656 4.9375 4.09375 7.59375 C 4.09375 10.558594 6.96875 10.582031 6.96875 11.75 C 6.964844 12.914063 6.09375 17.738281 6.09375 20.46875 C 6.09375 25.472656 7.136719 25.875 8 25.875 C 8.863281 25.878906 9.941406 25.472656 9.9375 20.46875 C 9.941406 17.738281 9.03125 12.914063 9.03125 11.75 C 9.027344 10.582031 11.902344 10.601563 11.90625 7.59375 C 11.90625 5.847656 11.65625 0.3125 11.65625 0.3125 C 11.65625 0.3125 11.167969 0.191406 10.125 0.125 L 10.125 6 C 10.125 6.328125 9.847656 6.597656 9.5 6.59375 C 9.152344 6.59375 8.84375 6.328125 8.84375 6 L 8.84375 0.09375 C 8.585938 0.0859375 8.324219 0.0664063 8.03125 0.0625 Z M 16.125 0.1875 L 16.125 6.59375 C 16.125 9.472656 15.875 10.882813 15.875 12.15625 C 15.875 13.433594 15.0625 17.113281 15.0625 20.09375 C 15.0625 25.566406 15.929688 25.871094 17 25.875 C 18.074219 25.875 18.9375 25.566406 18.9375 20.09375 C 18.933594 17.113281 17.9375 15.960938 17.9375 14.6875 C 17.933594 12.523438 20.933594 11.691406 20.9375 8.40625 C 20.933594 6.496094 21.378906 0.1875 16.125 0.1875 Z "/>
</g>
</svg>
