<?xml version="1.0" encoding="UTF-8"?>
<svg xmlns="http://www.w3.org/2000/svg" xmlns:xlink="http://www.w3.org/1999/xlink" width="26pt" height="26pt" viewBox="0 0 26 26" version="1.1">
<g id="surface1">
<path style=" stroke:none;fill-rule:nonzero;fill:#FFFFFF;fill-opacity:1;" d="M 0 0 L 0 23 L 7 26 L 13 23 L 18.96875 25.5625 L 20 26 L 26 23 L 26 0 L 20.84375 2.5625 C 21.097656 3.191406 21.246094 3.882813 21.28125 4.59375 L 24 3.25 L 24 21.75 L 19.9375 23.78125 L 18.75 23.28125 C 17.910156 18.621094 15.164063 17.78125 13 17.78125 C 12.457031 17.78125 12.03125 18.425781 11 17.84375 C 9.257813 16.863281 9.816406 14.15625 7 14 C 5.320313 12.320313 3.21875 12 2 11.96875 L 2 3.03125 L 6.21875 4.84375 C 6.472656 4.953125 6.730469 5 7 5 C 7.308594 5 7.625 4.921875 7.90625 4.78125 L 8.71875 4.375 C 8.800781 3.40625 9.089844 2.515625 9.5625 1.71875 L 7 3 Z M 15 0.09375 C 12.34375 0.09375 10.1875 2.25 10.1875 4.90625 C 10.1875 7.5625 14.375 12.332031 14.375 15.90625 L 15.625 15.90625 C 15.625 12.34375 19.8125 7.347656 19.8125 4.90625 C 19.816406 2.25 17.65625 0.09375 15 0.09375 Z M 15 2.8125 C 16.167969 2.8125 17.125 3.738281 17.125 4.90625 C 17.125 6.074219 16.167969 7.03125 15 7.03125 C 13.832031 7.03125 12.875 6.074219 12.875 4.90625 C 12.875 3.738281 13.832031 2.8125 15 2.8125 Z "/>
</g>
</svg>
